<svg width="1119" height="394" viewBox="0 0 1119 394" fill="none" xmlns="http://www.w3.org/2000/svg">
<path fill-rule="evenodd" clip-rule="evenodd" d="M1086.87 216.734C1073.96 320.647 1041.86 420.898 982.429 502.738C927.203 578.792 849.461 623.639 768.593 655.05C691.027 685.179 612.683 682.278 532.218 677.611C429.098 671.631 289.322 722.792 235.019 624.106C179.159 522.589 280.975 391.52 308.916 271.797C327.489 192.212 341.359 116.604 371.079 41.1149C408.06 -52.8157 419.808 -182.443 502.829 -220.744C585.735 -258.993 658.073 -144.711 744.701 -131.254C851.323 -114.692 982.138 -214.685 1061.52 -133.958C1138.39 -55.7756 1101.8 96.51 1086.87 216.734Z" fill="url(#paint0_linear)" fill-opacity="0.1"/>
<path fill-rule="evenodd" clip-rule="evenodd" d="M970.627 34.2304C959.419 124.462 931.54 211.514 879.937 282.579C831.983 348.62 764.476 387.562 694.255 414.837C626.902 440.999 558.873 438.48 489.002 434.428C399.459 429.235 278.086 473.66 230.933 387.968C182.427 299.816 270.838 186.004 295.1 82.0442C311.228 12.9375 323.272 -52.7164 349.079 -118.266C381.191 -199.83 391.392 -312.39 463.482 -345.649C535.473 -378.861 598.287 -279.626 673.509 -267.941C766.093 -253.559 879.685 -340.388 948.611 -270.289C1015.36 -202.4 983.594 -70.1647 970.627 34.2304Z" fill="url(#paint1_linear)" fill-opacity="0.1"/>
<path fill-rule="evenodd" clip-rule="evenodd" d="M60.9125 131.424C51.795 46.5231 61.1671 -39.1585 99.5245 -115.479C135.171 -186.404 197.953 -236.897 266.347 -277.333C331.948 -316.117 404.959 -328.852 480.289 -340.593C576.828 -355.64 695.677 -423.047 765.867 -355.191C838.07 -285.388 770.499 -161.883 768.922 -61.5567C767.873 5.13489 770.368 67.7697 758.185 133.351C743.027 214.955 758.425 320.03 689.437 366.344C620.544 412.594 530.522 335.829 447.715 341.78C345.795 349.106 245.122 453.527 155.39 404.727C68.4876 357.467 71.4613 229.652 60.9125 131.424Z" fill="url(#paint2_linear)" fill-opacity="0.2"/>
<defs>
<linearGradient id="paint0_linear" x1="388.046" y1="-329.144" x2="1035.25" y2="196.352" gradientUnits="userSpaceOnUse">
<stop stop-color="#9EE6F7" stop-opacity="0"/>
<stop offset="1" stop-color="#9EE6F7"/>
</linearGradient>
<linearGradient id="paint1_linear" x1="363.812" y1="-439.776" x2="925.804" y2="16.5324" gradientUnits="userSpaceOnUse">
<stop stop-color="#9EE6F7" stop-opacity="0"/>
<stop offset="1" stop-color="#9EE6F7"/>
</linearGradient>
<linearGradient id="paint2_linear" x1="817.504" y1="430.297" x2="162.276" y2="51.9343" gradientUnits="userSpaceOnUse">
<stop stop-color="#9EE6F7" stop-opacity="0"/>
<stop offset="1" stop-color="#9EE6F7"/>
</linearGradient>
</defs>
</svg>
